# xmcd
# 
# Track frame offsets:
#     150
#     13612
#     28122
#     55067
# 
# Disc length: 1124
# 
# Revision: 0
# Processed by: cddbd v1.5.2PL0 Copyright (c) Steve Scherf et al.
# Submitted via: BonkEnc v1.0.8
# 
DISCID=28046204
DTITLE=2 Eivissa  - Single
DYEAR=1998
DGENRE=dance
TTITLE0=Move Your Body (Radio Version)
TTITLE1=Move Your Body (G-Bo Mix)
TTITLE2=Move Your Body (Latino Mix)
TTITLE3=Move Your Body (Club Mix)
EXTD=
EXTT0=
EXTT1=
EXTT2=
EXTT3=
PLAYORDER=
